<svg transform="scale(1)" version="1.1" id="OMylfp03b4" xmlns="http://www.w3.org/2000/svg" xmlns:xlink="http://www.w3.org/1999/xlink" x="0px" y="0px" viewBox="0 0 500 500" xml:space="preserve" class="pbimage_pbimage__wrapper__image__0LEis false"><title>Internet</title><style type="text/css"> .st0{fill:#FFFFFF;} .st1{fill:#231F20;} .st2{fill:#D1D3D4;} .st3{fill:#68E1FD;}
 .st3{fill:#68E1FD;}
 .st2{fill:#D1D3D4;}
 .st1{fill:#231F20;}
 .st0{fill:#FFFFFF;}</style><g id="Globe"><circle class="st0" cx="242" cy="282.1" r="116.3" fill="#FFFFFF"></circle><path class="st1" d="M242,165.8c64.2,0,116.3,52.1,116.3,116.3S306.3,398.4,242,398.4s-116.3-52.1-116.3-116.3c0,0,0,0,0,0
		C125.7,217.9,177.8,165.8,242,165.8 M242,164.5c-64.9,0-117.6,52.7-117.6,117.6S177.1,399.7,242,399.7
		c64.9,0,117.6-52.7,117.6-117.6C359.5,217.2,306.9,164.6,242,164.5z" fill="#231F20"></path><path class="st2" d="M154.8,205.1c0.9,0.3,1.8,0.4,2.7,0.2l-1.6-1.4c2.1-2.3,4.3-4.6,6.6-6.7c0,1.6-1,3-2.6,4.2
		c2.5,0.1,4.4-1.3,6.5-2c2.6-0.6,5.2-1.1,7.8-1.4l-3.9,2.8c0.7,0.3,1.5,0.5,2.2,0.7c0.7-1.6,1.7-0.3,2.5-0.3c1.9-0.1,4,2.1,5.4-0.2
		c0.7,0.1,1.3,0.2,2,0.4c1.7,0.7,3.6,1.2,5.1,2.4c1.8,1.4,2.3,1.6,3.6-0.5l-1.8-0.6v-0.7l3.6-0.8c0.1,0.9,0.2,1.7,0.2,2.6
		c-0.2,0.5-0.4,1.1-0.7,1.5c1.1,0.1,2.1,0.3,3.2,0.5c1,0.3,2,0.8,2.9,1.2l-0.9,1.8l4.8-0.8l0.2,0.4l-1.9,1.2
		c2.8,0.8,4.5-0.6,4.5-3.4l2.4-1.3c-0.8-0.1-1.7,0-2.5,0.3c-2.6,0.6-5.2,1.2-7.8-0.1c-1.3-0.7-1.3-1.6,0-2.3
		c1.6-0.8,3.2-1.5,4.9-2.1c2.9-0.8,6-1.4,9-2.1l-0.5-0.8c1.4-0.4,2.8-0.7,4.3-0.8c0.9,0.1,1.7,0.4,2.5,0.8c-0.2-0.5-0.4-0.9-0.8-1.6
		c1.4,0.7,2.6,1.7,3.4,1.5c1.9-0.4,3.3,1,5.2,0.6c1.1-0.2,2.6,1.4,3.4,1.9c0.9,0.1,1.8,0.3,2.6,0.6c0.8,0.5,1.5,1.1,2.2,1.7l-3-0.7
		c1.3,1.6,2.8,3.6,4.4,5.4c1.1,1.2,2.3,2.8,3.8,3.2c2,0.6,3.8,1.6,5.3,3c0.6,0.6,0.9,1.5,0.8,2.3c-0.2,1.2-0.5,2.4-1,3.6
		c-0.5,1.3-2,2-3.4,1.5c-1.1-0.6-2.6-2-3.3-1.6c-1.1,0.5-1.6,2.1-2.3,3.3c-0.1,0.2-0.3,0.5-0.4,0.8c-0.7,1.4-0.6,4.6-3.2,1.3
		c-2.1,0.4-2.1-1.3-2.2-2.4c-0.1-1.2-0.8-2.3-1.8-2.8c-1.4-0.8-1.4-2.1-0.2-3c1.6-1.2,1.8-2.2,0.4-3.7c-0.7-0.8-1.8-1.2-2.6-1.9
		s-1.2-1.7-2.1-2.4c-0.9-0.8-2-1.4-3.1-1.8c-0.6-0.2-1.5,0.4-2.5,0.8c1.9,1.5,3.3,2.6,4.7,3.7c0.8,0.6,1.7,4.4,1,4.9
		c-1.3,0.8-2.8,1.3-4.3,1.4c-1.3,0.1-2.7-0.7-4.1-0.9c-0.7,0-1.4,0.2-2,0.4v0.8c1.2,0.1,2.4,0.2,3.6,0.3c0.9,0.1,1.9,0.2,2.8,0.3
		c1.3,0.3,1.4,1.1,0.6,2c-1.2,1.1-0.8,1.8,0.2,2.7c2.4-2,3-1.8,3.5,1.3c0.1,0.7,0.1,1.4,0,2.1c1,0.4,2.2,1.4,2.8,1.1
		c2.5-1.2,4.2,1,6.5,1.2c0.7-1.8,2-0.7,3.1-0.7c0.8-0.1,1.5-0.4,2.1-1c0.3-0.3,0.5-1.2,0.3-1.4c-1-1-1.3-2.6-0.6-3.9
		c3.1,1.7,3,1.7,2.3,4.8c-0.1,0.6-0.2,1.3-0.1,1.9l4.5,1.8c1.5,1.4,2.5,2.5,3.6,3.5c0.4,0.4,0.9,0.6,1.2,1c0.7,1.7,2.6,2.5,4.3,1.8
		c0.1,0,0.1-0.1,0.2-0.1c-0.1,0.6-0.1,1.2-0.2,1.9l4-0.2c-1.2,1.5-2.4,2.9-3.8,4.1c-1.6,1.8-0.3,3.8-0.1,5.7
		c3.4,0.3,6.8-1.3,10.1,0.7c-1.9,3.8,1.2,7.7-1,11.4l-2.2-0.3l-1.3,1.8c-3.4-0.8-6.7-1.3-7.7-4.2c0-1.1,0.3-2-0.1-2.4
		c-0.8-1-1.8-2-2.7-3c-0.6-0.7-1.6-1.5-1.5-2.2c0.1-2.2-1.2-2.1-2.4-1.6c-1,0.6-2.3,0.3-3.1-0.6c-0.8-0.6-1.6-1.2-2.4-1.6
		c-0.6,0.7-1.1,1.5-1.8,2.2c-1,1.3-2.1,2.5-3.4,3.6c-2.2,1.6-4.8,2.8-3.9,6.3l-1.6-2.1c0.3-0.9,0.4-1.5,0.7-2.6l-2.5,1.2
		c0.1-0.4,0.1-0.7,0.2-0.8c1.5-1,2.4-2.8,4.3-3.2c0.5-0.1,1-0.7,1.4-1.2c0.6-0.8,0.9-1.7,1.5-2.4c1.5-1.8,1.2-2.8-0.8-3.3
		c-0.2,0.5-0.4,0.9-0.7,1.3c-0.2,0.2-0.9,0.2-1,0.4c-0.5,2-2.3,2.6-3.8,3.6c-1,0.6-2.3,1.7-2.3,2.6c0,4.1-2.9,6.6-4.4,9.8
		c-0.6-0.9-1.2-1.9-1.7-2.9c-0.2-0.6-0.1-1.3,0.2-1.9c0.5-0.9,1-1.8,1.6-2.7c-0.9,0.1-1.8,0.4-2.1,0.1c-1.6-1.4-1.5-1.5-2.9-0.7
		c0.1,1.5,0.2,2.8,0.3,3.9c-0.6,0.9-1.1,2.3-2,2.7c-1.1,0.5-2,2.4-3.9,0.8c-0.6-0.5-2.6,0.5-3.9,0.9c-0.1,0-0.1,0-0.2,0l-3.4-1.7
		c0.7,3.2,1.3,5.7,1.9,8.2c0.4,1.6,1,2.8,3,2.9c0.8,0,1.5,0.9,1.9,1.1l-3.1,3.3l1.5,1.2l-0.2,0.6l-3-0.9c-0.4,0.7-1,1.6-1.5,2.6
		c-0.8,1.6-1.6,3.3-2.3,5c-0.6,1.4-1.1,2.7-1.7,4.1c-0.3,1-0.6,2.1-1,3c-0.6,1.1-1.3,2.1-2,3.1c-2.1,3-2,6.6-2.6,10
		c-0.2,1.2-0.7,1.6-1.8,1.1c-2-0.9-3.9-2-5.8-3.1c-2-1.3-3.6-3.1-5.7-4.3c-1.9-1-3.6-2.3-4.9-4c-0.4-0.5-0.6-1-0.9-1.6
		c-0.3-0.6-0.6-1.1-1-1.6c-2.3-2.6-1.9-4.8,1.3-6.4c0.6-0.4,1.1-1,1.3-1.7c0.2-0.9,0.3-1.8,0.3-2.7c0.9,0.9,1.7,1.9,2.4,3
		c0.9,1.8,2.3,0.7,3.5,0.9c0.1-0.7,0.2-1.5,0.4-2.2c0.1-0.5,0.2-1,0.4-2c0.5,1.1,0.7,1.6,0.8,1.9c1.2-2.5,2.4-5.1,3.6-7.6
		c-1.9-2.1-2.3-2.1-3.7,0.5c-0.2,0.4-0.4,0.8-0.5,1.2c-0.9,2.8-3.9,4.3-6.7,3.3c-0.3-0.1-0.5-0.2-0.8-0.3c-1,2.5-1.2,2.8-4,3
		s-5.8,0-8.4,0l-4.8,5.4l1.4,0.6l-3.1,2.7l-1.6-2c-0.7,3.9-1.3,8.5-2.5,12.9c-1,4.5-2.4,8.9-4.3,13.1c-2.7-3.1-4.1-7.2-3.8-11.3
		c0.2-1,0-2.1-0.4-3c-1-1.5-2.6-2.5-3.6-4c-1.5-2.3-4.4-3.5-5-6.6c-0.1-0.4-0.9-0.8-1.4-0.9c-1.5-0.4-3.1-0.7-4.7-1
		c-0.2,1.2-0.6,2.3-1.1,3.3c-0.9,1.2-1.7,2.6-2.3,4c-0.5-4.4-0.7-8.8-0.8-13.2C125.6,253.8,136,226.4,154.8,205.1z" fill="#D1D3D4"></path><path class="st2" d="M316,371.8c-0.4-0.7-0.6-1.5-0.7-2.3c-0.1-2-0.8-3.3-2.4-4c-1.9-0.9-3.9-1.5-5.9-2.2c-0.5-0.1-0.9-0.4-1.2-0.8
		c-1-1.6-1.8-3.3-2.4-5.1c-0.4-2.5-0.7-5.1-0.9-7.6c0-0.3,0-0.6-0.2-0.8c-1-1.3-2.2-2.5-3.1-3.9c-1-1.5-2.4-3.2-2.5-4.9
		c-0.2-2,1.2-3.8,3.2-4c0.1,0,0.2,0,0.2,0c0.3-0.1,0.6-0.3,0.8-0.6c2.3-3.1,5.5-2.4,8.7-2.4c-0.3-1.3,0.4-1.8,1.8-2.1
		c3.2-0.7,5.8-2.2,6.7-5.9c1-3.8,2.9-4.9,6.8-5.1c1.2-0.2,2.3-0.8,3.2-1.6c0.8-0.6,1.5-1.3,2.1-2.1c0.3-0.4,0.6-0.8,1-1.1
		c1.1-0.8,1.9-2.4,3.4-2.1s3.1,0.7,4.7,0s2.8-1.3,4.5-2.1c0.4,1.1,1,2.6,1.5,4.2c1.1-1.7,0-3.3-0.3-5c3.1,1.9,6.7,3,7.4,7.2l0.2-0.1
		C346,338.8,333.2,357.6,316,371.8z" fill="#D1D3D4"></path><path class="st2" d="M339.4,244.3c-3.9,0.9-6.8-1.1-9.9-2.6c-0.6-0.3-1-0.9-1.1-1.5c0.1-0.8,0.5-1.5,1.1-1.9
		c0.9-0.4,1.8-0.6,2.7-0.7l-1.2-0.8c1.6-0.8,3.1-1.7,4.5-2.8c0.7-0.6,0.5-2.1,1-3c1-1.5,2-3,3.1-4.4c1,1.5,1.3,4.1,3.9,3.5
		c0.8-0.2,1.5-0.6,1.9-1.3c7.2,13.9,11.4,29,12.6,44.6c-0.4-0.4-0.9-0.8-1.4-1.1c-3.2-1.8-3.4-2.4-2.5-6.1c0.1-1.2,0.1-2.4,0-3.6
		c-0.3,1.2-0.6,2.1-0.8,3.1c-0.8-1.3-1.8-2.4-2-3.6c-0.2-2.1-1.2-2.6-3-2.6c-0.7-0.1-1.4-0.2-2-0.5l0.6-0.3c-0.1-1,0.2-2.6-0.4-3
		c-2.2-1.3-4.5-2.5-6.9-3.6l1.5,3.2l-0.5,0.1l-7.3-3.9l0.3-0.6l0.9,0.5c-0.2-0.6-0.3-1.2-0.5-1.7c0.3,0,0.6,0.2,0.8,0.5
		c1.3,2,2,2.1,4,0.7c1.5-1.1,2-2.3,0.4-3.8c-0.1-0.1,0.2-1.2,0.4-1.2c0.8-0.1,1.7,0,2.5,0.2c1.1,0.4,2.1,0.8,3.1,1.3
		C343.5,246,341.9,243.7,339.4,244.3z" fill="#D1D3D4"></path><path class="st2" d="M238.8,323.3c-0.5,0.9-0.7,2-0.6,3c0.9,3.1,0.9,5.7-1.6,8.3c-2.2,2.3-3.2,5.4-3,8.5c0,0.4-0.1,0.8-0.3,1.2
		c-1,1.4-0.4,2.4,0.3,3.8c1.5,3.1,2.9,6.2,0.8,9.9c-1.3,2.1-2.6,4.3-2.7,7.1c0.1,2.7-0.9,5.3-2.7,7.4c-1.1,1.2-2.2,3.2-2.1,4.7
		c0.3,1.6-0.5,3.1-2,3.8c-0.6-0.3-1.3-0.5-2-0.7c-1.9-0.2-3.9-0.1-5.7-0.6c-4.7-1.4-7.1-5.4-9.5-9.2c-0.4-0.7-0.2-1.9-0.2-3.2
		c-0.3-0.2-0.9-0.6-1.6-0.9c-1.9-0.9-2.5-2.2-1.9-4.2c0.2-0.7,0.6-1.4,0.7-2.2c0.1-0.4,0.2-1.1-0.1-1.3c-1.6-1.4-3.3-2.7-4.8-4.2
		c-1-1-2.4-2-2.6-3.2c-0.2-1.9-0.2-3.7,0.3-5.6c0.2-1.2,1-2.4,1.3-3.6s-0.7-2.9,0.8-4.1c0.2-0.1,0.1-0.9-0.1-1.2
		c-2.4-3.3-4.3-7.1-7.3-9.5c-4-3.2-6-7.5-8.2-11.8c-0.6-1.2-0.6-2.7-0.8-4c3.1,0.8,5.8,1.5,8.5,2.1c0.6,0,1.2-0.2,1.5-0.7
		c0.5-0.8,0.4-1.9,0.9-2.6c1-1.2,2.3-2.2,3.4-3.3c0.6-0.6,1.1-1.3,1.5-2.1c0.9-2.8,3-5,3.3-8.1c0.2-1.9,2-3.7,2.9-5.6
		c1.1-2.4,2.1-4.8,2.9-7.3c0.6-1.8,1.6-1.7,3.1-1.3c1.1,0.4,2.2,0.4,3.3,0.2c2.2-0.6,4.3-1.4,6.4-2.2c1.9-0.7,3.4,0.1,3.6,2
		c0.1,1.4,0.7,2.1,2,1.1s3.9-0.5,4.4-2.9c0-0.1,0.5,0,0.7-0.1c2-0.9,4.7,0.2,5.8-1.9c-0.5-1.6-1-2.9-1.5-4.4
		c0.9-0.2,1.8-0.3,2.8-0.4c2.4,0.1,4.8,0.2,7.2,0.5c1.7,0.2,3.4,0.7,5,1.3c2.5,1,5,2,7.3,0.1c1.2,1.2,2,2.7,3.3,3.4
		c1.5,0.7,2.4,2.2,2.4,3.9c0,2.6,1.4,3.5,3.4,4.1c0.5,0.2,1,0.5,1.3,0.9c1.2,2,2.4,3.9,3.4,6c0.7,1.4,2,2.7,0.7,4.8
		c-0.8,1.2-0.6,3.4-0.1,4.9c0.6,2.1,0.8,4.3,0.5,6.4c-0.1,0.5-0.4,1-0.8,1.3c-0.3,0.4-0.8,0.6-1,1c-1.1,1.8-2.3,3.6-3.6,5.3
		c-1.5,1.4-3.1,2.8-4.8,4.1c-1,0.9-2,0.9-3.3,0.5c-1.7-0.3-3.5-0.5-5.3-0.5c-0.7,0-1.3-0.1-2-0.3c-1.3-0.6-2.7-1.1-4.1-1.5
		c-1.4-0.3-3.3-1.2-4,0.9c-0.6,1.9-1.7,1.8-3.2,1.7C240.1,322.5,239.4,322.8,238.8,323.3z" fill="#D1D3D4"></path><path class="st2" d="M326.8,202.5c-0.4-0.1-0.8-0.3-1.2-0.5l-3.4,2.4l4.4-0.6c0,0.2,0.1,0.4,0.1,0.6l-4.2,1.6v2.1l5,2.6l-2.3,1.8
		c0.1,0.6,0.1,1.2,0,1.8c-1.6,3.2-3.2,6.5-4.9,9.6c-0.5,0.8-1.2,1.5-2,1.9c-1.2,0.6-2.4,1.2-3.6,1.6c-0.9,0.4-1.8,0.9-2.1-0.8
		s-0.7-3.1-1.1-4.6c-0.1-0.3-0.2-0.7-0.4-0.8c-1.7-0.9-2-2.3-2-4.1c0-0.6-1-1.7-1.5-1.7c-3.4,0.3-5.5-1.4-7.3-3.9
		c-0.5-0.7-1.4-1.6-2.1-1.6c-4.4-0.3-8.2-2.3-12.1-4.5l5.3-0.6l-1.4-1.7l-4.2,1.8c-0.3-2.2,0.5-3.2,2.1-3.9c1.8-0.7,2-1.7,1-3H284
		l1.4-1.6l-3.1-0.4l1.4-1.4c-2.4-1.7,0.8-2.5,0.6-3.7l-3-0.2c0.5-0.8,0.9-1.9,1.5-2.1c1-0.2,2-0.3,3-0.2c-2.8-4.2-7.6-5.5-12-7.6
		c2.4-1.3,5.2-1.4,7.7-0.5c2.3,0.6,4.6,1.1,6.9,1.4l-1.1-1.7c0.9,0.1,1.8,0.2,2.7,0.3c0.5,0,1,0,1.5,0c0-0.3,0-0.6,0.1-0.9l-5.5-0.9
		c1.9-0.5,3.6-1.2,5.4-1.6C304.8,183,316.8,191.8,326.8,202.5z" fill="#D1D3D4"></path><path class="st2" d="M341.6,221.9c0.2,0.4,0.5,0.8,0.7,1.1c-0.4,0.1-0.9,0.3-1.3,0.5L341.6,221.9z" fill="#D1D3D4"></path><path class="st2" d="M335.2,212.6L335.2,212.6c0.4,0.5,0.8,0.9,1.1,1.4L335.2,212.6z" fill="#D1D3D4"></path><path class="st2" d="M339.5,221.3c-0.2-0.8-0.1-1.6,0.1-2.4c0.5,0.7,1,1.5,1.4,2.2L339.5,221.3z" fill="#D1D3D4"></path><path class="st2" d="M193.2,360.7c0.7,1.6,0.5,4.6-0.7,5.7c-1,0.9-2.5,0.8-3.3-0.2c-0.2-0.2-0.4-0.5-0.5-0.8c-1.2-4-2.3-8-3.4-12.1
		c-0.1-0.3,0-0.7-0.2-0.9c-1-1.5-0.7-3.6,0.6-4.8c2.3,1.8,2.6,5.6,6.8,5.4c0,1.4-0.1,2.6,0,3.9C192.5,358.2,192.8,359.5,193.2,360.7
		z" fill="#D1D3D4"></path><path class="st2" d="M249.4,232.5c-0.2-0.5-0.7-1.3-0.5-1.5c0.3-0.3,0.7-0.5,1.1-0.5l4.6-6.3c-1.2-2.2-1.2-3,0.5-4.1
		c1-0.7,3.3,0.3,4.4,1.8c0.5,0.7-0.2,2-2,3.7l0.2,1.3c-0.4,0-0.6,0-0.8,0.1c-0.7,0.5-1.6,0.9-1.8,1.6s0.4,1.4,1.5,1
		c0.3,0.2,0.4,0.5,0.5,0.8c0.1,0.8,0,1.5,0,2.5l-1.7,0.5l3.1,2.4l-8.3-1.3L249.4,232.5z" fill="#D1D3D4"></path><path class="st2" d="M178.3,190.5c1.6,1.7,3.2,3.3,5,4.8c-2.2,2.2-5.1,2.4-8.5,2.3c1-0.7,1.8-1,2.1-1.6s0.6-1.7,0.3-2.1
		c-1.6-1.9-3.5-3.4-5.7-4.4c0.7-0.6,1.5-1.1,2.2-1.7C175.5,188.3,177.1,189.2,178.3,190.5z" fill="#D1D3D4"></path><path class="st2" d="M283.3,221.3c-0.8,0.2-1.7,0.2-2.5,0c-1.3-0.3-2.5-0.9-3.6-1.7c-0.8-0.7-2.6-1.2-1.8-2.7c0.7-1.2,2-2,3-2.9
		l0.2,0.7l6.4,1.5l1.5-2.1l-0.2,0.7l2.8,1.6l-0.3,0.4h-3l2.7,1.4l-3,0.9l1.5,1.1C285.8,220.6,284.6,221.1,283.3,221.3z" fill="#D1D3D4"></path><path class="st2" d="M228.8,186.2c-1.4-1.1-2.5-2.1-3.7-2.9c-0.4-0.2-1-0.2-1.4,0c-0.4,0.2-0.4,0.9-0.7,1.4h-4.1
		c0-0.3-0.1-0.5-0.1-0.8l11.4-4.6c-0.5,1.1-0.7,1.5-0.7,1.6l6.8-0.6l0.2,0.7c-1,0.7-1.9,1.7-2.9,2s-2.2-0.3-3.3-0.4
		c0,0.2,0,0.4-0.1,0.5l2.6,0.9l-0.1,0.4l-2,0.2l1.4,0.7L228.8,186.2z" fill="#D1D3D4"></path><path class="st2" d="M259,228.7c-1-0.6-1.1-1.4-0.1-1.9s2.1-1.3,3.2-0.1c0.6,0.7,1.3,1.2,2.1,2v3.3l0.7,0.3
		c-0.4,0.3-0.8,0.9-1.1,0.8c-1.5-0.4-3-0.9-4.4-1.6c-0.4-0.2-0.1-1.5-0.1-2.3C259.2,229.1,259.2,228.8,259,228.7z" fill="#D1D3D4"></path><path class="st2" d="M356.8,295c0.3-0.1,0.6-0.2,0.9-0.3c0,0.5-0.1,1-0.2,1.5c-0.8,0.3-1.6,0.6-2.4,1c-0.8,0.4-1.3,1.5-2.2,2.5
		l-3.9-0.4C351.8,297.7,354.2,296.3,356.8,295z" fill="#D1D3D4"></path><path class="st2" d="M341.6,302.1c-0.2-1.9,3.2-3.1,6.2-2.2l-1.6,1.9l3.2-0.3C346.9,303.2,344.2,301.9,341.6,302.1z" fill="#D1D3D4"></path><path class="st2" d="M215.5,179.6h10.7c-1.4,0.7-2.9,1.2-4.5,1.5c-2.1,0-4.2-0.1-6.3-0.3L215.5,179.6z" fill="#D1D3D4"></path><path class="st2" d="M144,320c-0.6-0.2-1.4-1.4-1.3-1.8c0.6-1.3,1.3-2.6,2.1-3.8l0.6,0.3c0,1.3,0,2.6,0,3.9
		C145.5,319.7,145.1,320.5,144,320z" fill="#D1D3D4"></path><path class="st2" d="M238.5,252.6l1.4,0.6v3.6c-2.4-0.1-1.3-2-1.8-3.1C238,253.5,238.3,253,238.5,252.6z" fill="#D1D3D4"></path><path class="st2" d="M230.8,258.5h3.8l0.1,0.4l-3.5,2.1C231,260.1,230.9,259.2,230.8,258.5z" fill="#D1D3D4"></path></g><g id="Character_Male"><rect class="st1" x="356.6" y="147" transform="matrix(0.4492 -0.8934 0.8934 0.4492 73.3033 416.664)" width="35.9" height="3.9"></rect><path class="st1" d="M368.2,166.5c-0.1,0-0.2,0-0.3-0.1l-3.4-1.7c-0.3-0.2-0.5-0.6-0.3-0.9l16.1-32.1c0.1-0.2,0.2-0.3,0.4-0.4
		c0.2-0.1,0.4-0.1,0.5,0l3.4,1.7c0.3,0.2,0.5,0.6,0.3,0.9l-16.1,32.1c-0.1,0.2-0.2,0.3-0.4,0.3C368.3,166.5,368.3,166.5,368.2,166.5
		z M365.7,163.8l2.2,1.1l15.5-30.9l-2.2-1.1L365.7,163.8z"></path><path class="st0" d="M355.4,177.9c0.4-1.2,8.7-11.3,9-13.5s-1.5-11.2,0.3-12.4s5.2,7.2,5.2,7.2s7.2-13.2,9.3-12.3s1.4,8.1,0.3,12.6
		s-14.3,26.3-14.3,26.3L355.4,177.9z"></path><path class="st1" d="M365.2,186.4c-0.2,0-0.3-0.1-0.4-0.2l-9.8-7.8c-0.2-0.2-0.3-0.5-0.2-0.8c0.2-0.5,1.1-1.8,3.2-4.7
		s5.6-7.6,5.8-8.7c0-1.3,0-2.6-0.2-3.8c-0.4-4.7-0.6-8.1,0.8-9.1c0.4-0.3,0.8-0.3,1.2-0.2c1.6,0.5,3.5,4.2,4.5,6.4
		c3.3-5.9,7.4-12.2,9.5-11.4c3.1,1.3,1.3,10.9,0.7,13.4c-1.2,4.5-13.8,25.6-14.4,26.5c-0.1,0.2-0.3,0.3-0.5,0.3L365.2,186.4z
		 M356.3,177.7l8.7,7c2.2-3.7,12.8-21.6,13.8-25.4c1.4-5.2,1.4-11.2,0.1-11.8c-1.1,0.1-5.3,6.3-8.4,12c-0.1,0.2-0.4,0.4-0.7,0.4
		c-0.3,0-0.5-0.2-0.6-0.4c-1.6-3.9-3.5-6.9-4.2-6.9l0,0c-0.9,0.6-0.5,5.3-0.2,7.8c0.2,1.4,0.3,2.8,0.2,4.2c-0.2,1.4-2.6,4.8-6,9.4
		C358,175.3,356.8,176.9,356.3,177.7z"></path><path class="st0" d="M391.3,360.5c0,0,10.3,18.3,9.6,18.4s-17.2,5-17.2,5s-9.7-14.8-9.6-15.2S391.3,360.5,391.3,360.5z"></path><path class="st1" d="M383.7,384.5c-0.2,0-0.5-0.1-0.6-0.3c-9.9-15.1-9.8-15.4-9.7-15.8s0.2-0.6,17.6-8.5c0.3-0.2,0.7,0,0.9,0.3
		c10.2,18,9.9,18.6,9.7,19c-0.1,0.2-0.3,0.4-0.6,0.4c-0.7,0.1-10.6,3-17.1,4.9L383.7,384.5z M375,368.9c1.1,2,5.8,9.3,9,14.1
		c3.8-1.1,13.3-3.9,16.1-4.6c-1-2.4-5.8-11.1-9.1-16.9C385.4,364,377.1,367.8,375,368.9z"></path><path class="st1" d="M401,378.9c0,0,28-1.5,29.4,3.5s-40,17.7-40,17.7l-6.7-16.2L401,378.9z"></path><path class="st1" d="M390.4,400.7c-0.3,0-0.5-0.2-0.6-0.4l-6.7-16.2c-0.1-0.2-0.1-0.4,0-0.6c0.1-0.2,0.2-0.3,0.4-0.4l17.2-5h0.1
		c4.8-0.3,28.6-1.3,30.1,4s-30.5,15.5-40.4,18.5C390.6,400.7,390.5,400.7,390.4,400.7z M384.7,384.3l6.2,14.9
		c19.4-6,39.6-14,38.9-16.6c-0.9-3-17.2-3.6-28.6-3L384.7,384.3z"></path><polygon class="st0" points="332.7,363.9 325.5,371.8 312.6,358.1 323,347.3 	"></polygon><path class="st1" d="M325.5,372.5c-0.2,0-0.4-0.1-0.5-0.2l-12.9-13.6c-0.3-0.3-0.3-0.7,0-1c0,0,0,0,0,0l10.4-10.9
		c0.2-0.2,0.4-0.2,0.6-0.2c0.2,0,0.4,0.2,0.5,0.3l9.7,16.6c0.1,0.3,0.1,0.6-0.1,0.8l-7.1,7.9C325.9,372.3,325.7,372.4,325.5,372.5
		L325.5,372.5z M313.5,358.2l12,12.6l6.3-7l-9-15.4L313.5,358.2z"></path><path class="st1" d="M325.5,371.8c0,0,9.3,28.2,4.4,27.8s-28.1-29.7-28.1-29.7l10.8-11.7L325.5,371.8z"></path><path class="st1" d="M330.1,400.3h-0.1c-5-0.4-26.2-27-28.6-30c-0.2-0.3-0.2-0.6,0-0.9l10.8-11.7c0.1-0.1,0.3-0.2,0.5-0.2l0,0
		c0.2,0,0.4,0.1,0.5,0.2l12.9,13.6c0.1,0.1,0.1,0.2,0.2,0.3c1.4,4.1,8,24.6,5.2,28.1C331.1,400,330.6,400.3,330.1,400.3z
		 M302.8,369.9c9,11.3,24,28.8,27.3,29c0.1,0,0.2,0,0.3-0.1c1.7-2.2-2.4-17.5-5.4-26.6l-12.3-13L302.8,369.9z"></path><path class="st1" d="M340.7,229.8c0,0,56.5,61.2,57.4,67.2c1.7,11.7-64.4,71.6-64.4,71.6L318.6,348l39.4-46l-51.7-70.7L340.7,229.8
		z"></path><path class="st1" d="M333.7,369.3L333.7,369.3c-0.3,0-0.4-0.1-0.6-0.3L318,348.3c-0.2-0.3-0.2-0.6,0-0.9l39-45.5l-51.4-70.3
		c-0.2-0.3-0.1-0.8,0.2-1c0.1-0.1,0.2-0.1,0.4-0.1l34.5-1.5c0.2,0,0.4,0.1,0.5,0.2c5.8,6.3,56.7,61.5,57.6,67.6
		c0.8,5.1-9.9,18.8-31.8,40.8c-16.1,16.3-32.7,31.3-32.9,31.5C334,369.2,333.9,369.3,333.7,369.3z M319.5,348l14.4,19.6
		c18.7-17,65-61.3,63.6-70.5c-0.6-4.2-34.3-42-57-66.6l-32.9,1.4l51,69.7c0.2,0.3,0.2,0.6,0,0.9L319.5,348z"></path><polygon class="st1" points="294.2,243.4 376.9,378.4 400.1,365 331.6,230.8 	"></polygon><path class="st1" d="M376.9,379.1c-0.2,0-0.5-0.1-0.6-0.3l-82.7-135c-0.1-0.2-0.1-0.4-0.1-0.6c0.1-0.2,0.2-0.4,0.4-0.4l37.5-12.6
		c0.3-0.1,0.7,0,0.8,0.4l68.5,134.3c0.2,0.3,0,0.7-0.3,0.9L377.2,379C377.1,379.1,377,379.1,376.9,379.1z M295.2,243.7l81.9,133.7
		l22.1-12.7l-67.9-133.1L295.2,243.7z"></path><path class="st0" d="M378.5,321.5c-0.3,0-0.5-0.1-0.6-0.4L339,246.9c-0.1-0.2-0.1-0.5,0-0.7l4.1-7.4c0.2-0.3,0.6-0.4,1-0.2
		c0.3,0.2,0.4,0.6,0.3,0.9l-3.9,7l38.7,73.9c0.2,0.3,0,0.8-0.3,1C378.7,321.4,378.6,321.4,378.5,321.5z"></path><path class="st0" d="M299.2,145.6c-3.6-0.6-7.2-1.5-10.7-2.4c-2.6-0.7-5.3-1.7-6.7-3.9c2.3-1,3.3-3.7,4.1-6.1l5.3-16.3
		c1.5-4.5,2.9-9,5.6-12.9c1.9-2.7,9.9-10.7,12.9-5.7c3.4-2.6,10.5-4.5,14.6-2.6c4.6,2.4,8,6.8,9.1,11.9c0.9,4.2,0.3,8.5-0.6,12.6
		c-0.1,0.8-0.4,1.7-0.8,2.4c-0.7,1-1.6,1.9-2.7,2.5c-7.4,5.3-13.3,12.4-17.3,20.5c-0.2,0.6-0.6,1-1.1,1.3c-0.4,0.1-0.8,0.2-1.3,0.1
		C306.1,146.7,302.7,146.2,299.2,145.6z"></path><path class="st1" d="M310.1,147.7c-0.2,0-0.4,0-0.6,0c-3.5-0.3-7-0.8-10.4-1.4l0,0c-3.6-0.6-7.3-1.5-10.8-2.5
		c-2.8-0.8-5.7-1.8-7.1-4.2c-0.1-0.2-0.1-0.4-0.1-0.6c0.1-0.2,0.2-0.3,0.4-0.4c2-0.9,2.9-3.3,3.7-5.7l5.3-16.3
		c1.5-4.5,3-9.1,5.7-13.1c1.6-2.3,6.9-7.6,10.8-7.6h0.1c1.1,0,2,0.5,2.7,1.3c3.6-2.4,10.4-4.3,14.7-2.2c4.8,2.5,8.3,7,9.5,12.4
		c0.9,4.3,0.3,8.8-0.6,12.9c-0.1,0.9-0.4,1.8-0.9,2.6c-0.7,1-1.6,1.9-2.7,2.6l-0.2,0.1c-7.3,5.2-13.1,12.2-17.1,20.3
		c-0.3,0.7-0.8,1.3-1.4,1.7C310.8,147.6,310.5,147.7,310.1,147.7z M282.8,139.4c1.4,1.7,3.8,2.4,5.9,3c3.5,1,7.1,1.8,10.7,2.4l0,0
		c3.4,0.6,6.9,1.1,10.3,1.4c0.3,0.1,0.6,0.1,0.9,0c0.3-0.1,0.5-0.6,0.7-1c4-8.3,10.1-15.4,17.5-20.8l0.2-0.1
		c0.9-0.6,1.7-1.3,2.3-2.2c0.3-0.7,0.6-1.4,0.7-2.2c0.8-4,1.5-8.2,0.6-12.3c-1.1-4.9-4.3-9.1-8.7-11.4c-3.6-1.8-10.5-0.1-13.8,2.5
		c-0.2,0.1-0.4,0.2-0.6,0.1c-0.2,0-0.4-0.1-0.5-0.3c-0.4-0.8-1.2-1.2-2-1.3h0c-3.3,0-8.3,5.1-9.6,7c-2.6,3.8-4.1,8.3-5.5,12.7
		l-5.3,16.3C285.8,135.6,284.8,138.1,282.8,139.4z"></path><path class="st0" d="M332.8,126.1c0,0,4.4,9.6,2.9,11.2s-5.2-0.2-5.2-0.2"></path><path class="st1" d="M333.9,138.7c-1.3-0.1-2.5-0.4-3.7-0.9c-0.4-0.2-0.5-0.6-0.3-0.9c0.2-0.4,0.6-0.5,0.9-0.3c0,0,0,0,0,0
		c0.9,0.4,3.5,1.4,4.4,0.4c0.6-0.7-0.8-5.6-3-10.4c-0.2-0.4,0-0.8,0.3-0.9c0,0,0,0,0,0c0.3-0.2,0.8,0,0.9,0.3c0,0,0,0,0,0
		c1.4,3,4.4,10.2,2.8,12C335.6,138.5,334.7,138.8,333.9,138.7z"></path><path class="st0" d="M333.4,114.4c3.2,3.6,1.1,9.7,0.4,13.8c-1,5.8-2.1,11.5-3.3,17.2c-0.8,3.6-10.3,2.2-11.8,0.8l-1,12.2
		c0,0-3.3,6.3-10.4,1.6s-8.1-9.9-8.1-9.9l3.3-16.6c0,0,6.2,1,11.1-5.8s6.6-18.4,6.6-18.4S330.3,111,333.4,114.4z"></path><path class="st1" d="M312.3,162.6c-1.9-0.1-3.8-0.7-5.4-1.9c-7.2-4.9-8.4-10.2-8.4-10.4c0-0.1,0-0.2,0-0.3l3.3-16.6
		c0.1-0.4,0.4-0.6,0.8-0.6c0.2,0,5.9,0.9,10.5-5.6c4.7-6.6,6.4-17.9,6.4-18c0-0.2,0.1-0.3,0.3-0.5c0.2-0.1,0.3-0.2,0.5-0.1
		c0.4,0.1,10.3,1.6,13.6,5.2l0,0c2.9,3.2,1.9,8.2,1,12.2c-0.2,0.8-0.3,1.5-0.4,2.2c-1,5.7-2.1,11.6-3.3,17.3
		c-0.3,1.2-1.3,2.2-2.5,2.4c-2.7,0.9-7.1,0.3-9.3-0.6l-1,11.2c0,0.1,0,0.2-0.1,0.3c-1,1.7-2.5,3-4.4,3.5
		C313.4,162.6,312.8,162.6,312.3,162.6z M300,150.2c0.2,0.8,1.6,5.2,7.8,9.4c2.1,1.4,4.1,1.9,5.8,1.5c1.5-0.4,2.7-1.4,3.5-2.7
		l1-12.1c0-0.3,0.2-0.5,0.4-0.6c0.3-0.1,0.5,0,0.7,0.1c0.8,0.7,6,1.9,9,0.9c0.9-0.3,1.5-0.8,1.6-1.4c1.2-5.7,2.3-11.5,3.3-17.2
		c0.1-0.7,0.3-1.5,0.4-2.3c0.8-3.7,1.7-8.3-0.7-11l0,0c-2.5-2.8-9.8-4.3-12-4.7c-0.5,2.6-2.3,11.9-6.6,18c-4.3,6.1-9.3,6.3-11.1,6.2
		L300,150.2z"></path><path class="st0" d="M331.1,141.2c0,0-4.9,2-6.6-3"></path><path class="st1" d="M328.9,142.3c-2.4,0.1-4.5-1.6-5-3.9c-0.1-0.4,0.1-0.8,0.4-0.9c0.4-0.1,0.8,0.1,0.9,0.4c0.3,1.1,1,2,2,2.6
		c1.2,0.4,2.4,0.4,3.6,0c0.3-0.2,0.8,0,0.9,0.3c0.2,0.3,0,0.8-0.3,0.9c0,0-0.1,0-0.1,0C330.5,142.1,329.7,142.3,328.9,142.3z"></path><path class="st0" d="M321.1,128.1c0.1-1.5-0.3-2.9-1-4.2c-0.4-1.1-1-2.1-1.7-3c-0.7-0.9-1.8-1.4-3-1.4c-1,0.1-1.9,0.6-2.5,1.4
		c-0.6,0.8-1,1.8-1.2,2.8c-0.9,4.4,0.6,8.9,4,11.9l-0.3-0.4"></path><path class="st1" d="M315.8,136.2c-0.2,0-0.3-0.1-0.5-0.2c-3.5-3.1-5.1-7.9-4.2-12.6c0.2-1.1,0.7-2.1,1.3-3c0.7-1,1.8-1.6,3.1-1.7
		c1.4,0,2.7,0.6,3.5,1.7c0.8,0.9,1.4,2,1.8,3.1c0.8,1.4,1.1,3,1,4.6c-0.1,0.4-0.4,0.6-0.8,0.6c-0.4-0.1-0.7-0.4-0.6-0.8c0,0,0,0,0,0
		c0-1.3-0.3-2.7-0.9-3.8c-0.4-1-0.9-1.9-1.6-2.8c-0.6-0.7-1.5-1.2-2.4-1.2c-0.8,0.1-1.5,0.5-2,1.2c-0.5,0.7-0.9,1.6-1,2.5
		c-0.8,3.9,0.4,7.9,3.1,10.7c0.2,0,0.3,0.1,0.5,0.3l0.3,0.4c0.2,0.3,0.1,0.8-0.2,1C316.1,136.2,315.9,136.3,315.8,136.2L315.8,136.2
		z"></path><path class="st1" d="M318.8,146.3c0,0-4.7-2.3-6.4-6c0,0-1.1,8.9,6,12.6L318.8,146.3z"></path><path class="st1" d="M318.4,153.6c-0.1,0-0.2,0-0.3-0.1c-7.5-3.9-6.4-13.2-6.4-13.3c0-0.4,0.4-0.7,0.8-0.6c0.2,0,0.4,0.2,0.6,0.4
		c1.6,3.5,6.1,5.7,6.1,5.7c0.2,0.1,0.4,0.4,0.4,0.7l-0.4,6.6c0,0.2-0.1,0.5-0.4,0.6C318.7,153.5,318.5,153.6,318.4,153.6z
		 M313.1,142.7c0.2,2.5,1.1,6.6,4.7,9l0.3-4.9C316.2,145.7,314.5,144.3,313.1,142.7L313.1,142.7z"></path><ellipse class="st1" transform="matrix(0.3195 -0.9476 0.9476 0.3195 109.4421 395.5921)" cx="330.1" cy="121.6" rx="2.1" ry="0.8"></ellipse><path class="st3" d="M295.1,147c0,0,19.4,2.3,26.4,13.3s10.5,51.4,14.1,54.4s13.4,18.5,13.2,19.2S292,248.3,292,248.3
		s-2.4-13.1-7.3-30.1S278.9,147,295.1,147z"></path><path class="st3" d="M309.8,164.4c0.4,0.6,19.8,37.2,19.8,37.2l25.7-29.3l13.5,11.3c0,0-23,38.4-37.6,42.1s-44.1-50-43.2-55.6
		S304.1,156.1,309.8,164.4z"></path><path class="st1" d="M329.7,202.3L329.7,202.3c-0.3,0-0.5-0.2-0.6-0.4l-17.6-33.1c-0.2-0.4,0-0.8,0.4-0.9c0.3-0.1,0.7,0,0.9,0.3
		c0.2,0.4,14.3,26.9,17.1,32.2l10.6-12.2c0.2-0.3,0.7-0.4,1-0.1c0.3,0.2,0.4,0.7,0.1,1c0,0,0,0.1-0.1,0.1l-11.3,12.9
		C330.1,202.2,329.9,202.3,329.7,202.3z"></path><path class="st1" d="M331.3,225.7c-9.5,0-19.3-8.5-29-25.3c-0.2-0.3-0.1-0.8,0.2-1c0,0,0,0,0.1,0c0.3-0.2,0.8-0.1,0.9,0.2
		c0,0,0,0,0,0c10.2,17.6,20.2,25.8,29.9,24.5s20.3-19.6,20.4-19.8c0.2-0.3,0.7-0.4,1-0.2c0.3,0.2,0.4,0.6,0.2,0.9
		c-0.5,0.8-11.2,19.1-21.4,20.5C332.8,225.6,332.1,225.7,331.3,225.7z"></path><path class="st0" d="M317.2,265.7c-0.1,0-0.3,0-0.4-0.1c-0.3-0.2-0.5-0.6-0.3-0.9c0,0,0-0.1,0.1-0.1c6.5-10.8,1.9-15.5,1.6-15.7
		c-0.3-0.3-0.3-0.7,0-1c0.3-0.3,0.7-0.3,1,0c0,0,0,0,0,0c0.2,0.2,5.7,5.6-1.4,17.4C317.7,265.6,317.5,265.7,317.2,265.7z"></path><path class="st3" d="M283.3,146c-5.9,0-12.5,1.3-15.7,6.3c-2,3.3-2,7.4,0,10.7c2.2,3.2,6,4.8,9.9,4.1c2.8-0.6,5.2-2.5,7.8-3.6
		c3.8-1.6,8.1-1.6,12.1-2.6c1.3-0.2,2.5-0.7,3.5-1.6c1-1,1.5-2.3,1.5-3.7C303,145.7,289.9,146.1,283.3,146z"></path><path class="st1" d="M283.5,165.1c-0.3,0-0.6-0.2-0.7-0.5c-0.1-0.4,0.1-0.8,0.4-0.9c0.5-0.2,11.1-4.1,18.5-3.4
		c0.4,0,0.7,0.4,0.6,0.8c0,0.4-0.4,0.7-0.8,0.6c-7.1-0.6-17.8,3.3-17.9,3.4C283.7,165.1,283.6,165.1,283.5,165.1z"></path></g><g id="Character_Female"><path class="st0" d="M158,286c-1.2,0.3-2.3,0.6-3.5,0.8c-15.5,2.8-32.9,2.2-45.3-7.6l1.8-6.8l-5.3,4.6l-7.1-6.4
		c12.2-9.7,13.8-24.9,21.8-37.3c6.5-10,21.2-10.8,31.4-6.5c7.1,3,12.8,8.7,15.9,15.8c3.4,7.9,3.3,16.9,2.6,25.5
		C169.4,278,166.5,283.5,158,286z"></path><path class="st1" d="M139.1,289c-10.3,0-21.4-2.2-30.3-9.2c-0.2-0.2-0.3-0.5-0.2-0.7l1.2-4.6l-3.6,3.1c-0.3,0.2-0.7,0.2-0.9,0
		l-7.2-6.4c-0.3-0.3-0.3-0.7-0.1-1c0,0,0,0,0.1-0.1c7.5-6,10.9-14,14.4-22.5c2-5.1,4.4-10,7.2-14.6c5-7.8,18-12.8,32.2-6.7
		c7.3,3.1,13.1,8.9,16.3,16.1c3.5,8.1,3.4,17.2,2.7,25.9c-0.9,10.7-4.4,15.9-12.7,18.4l0,0c-1.2,0.4-2.4,0.6-3.6,0.9
		C149.5,288.5,144.3,289,139.1,289z M110,279c13.3,10.2,31.4,9.5,44.4,7.2c1.2-0.2,2.3-0.5,3.4-0.8c7.6-2.3,10.9-7.1,11.7-17.1
		c0.7-8.4,0.9-17.3-2.6-25.2c-3-6.9-8.6-12.4-15.5-15.4c-10.2-4.3-24.4-3.2-30.5,6.2c-2.8,4.6-5.1,9.4-7.1,14.4
		c-3.4,8-6.8,16.4-14.2,22.5l6.1,5.4l4.8-4.2c0.2-0.2,0.6-0.2,0.8-0.1c0.3,0.2,0.4,0.5,0.3,0.8L110,279z M158,286L158,286z"></path><path class="st0" d="M94.9,387c-2,0-16.7,1.6-23.6,5s-8.4,3.7-7,8.3c1.4,4.6,13.5,5.8,22.7,4c5.9-1.2,11.7-3.3,17-6.2L94.9,387z"></path><path class="st1" d="M78.5,405.8c-6.9,0-13.7-1.5-14.8-5.2c-1.4-4.8,0.2-5.6,5.8-8.3l1.5-0.8c7-3.5,21.7-5.2,23.9-5.1
		c0.2,0,0.4,0.1,0.5,0.2l9.2,11.1c0.1,0.1,0.2,0.3,0.1,0.5c0,0.2-0.1,0.3-0.3,0.4c-5.4,2.9-11.2,5-17.2,6.2
		C84.3,405.5,81.4,405.8,78.5,405.8z M94.6,387.7c-2.8,0.1-16.5,1.7-23,4.9l-1.6,0.8c-5.5,2.7-6.2,3.1-5.1,6.8
		c1.2,4.1,12.8,5.3,22,3.6c5.6-1.2,11.1-3.1,16.2-5.8L94.6,387.7z"></path><path class="st0" d="M92.9,387c-2.7,0.6-4.4,3.3-4,6c0.6,4.9,11,5.1,11.6,5.1S92.9,387,92.9,387z"></path><path class="st1" d="M100.5,398.8L100.5,398.8c-1.9,0-11.5-0.5-12.2-5.7c-0.7-5.4,4.4-6.7,4.5-6.7c0.3-0.1,0.5,0,0.7,0.2
		c8.1,11,7.9,11.4,7.7,11.8C101,398.6,100.8,398.8,100.5,398.8z M92.7,387.8c-2.2,0.7-3.5,2.9-3.1,5.2c0.5,3.5,7.3,4.3,10,4.5
		C98.4,395.7,95.5,391.6,92.7,387.8L92.7,387.8z"></path><path class="st0" d="M169.7,398.2c0.3,0.1,3.1,3.8,15.4,5.3s16.9,4.1,19.6-2.3s0.9-10.6-5.2-12.5s-22.7-3.4-26-0.3
		S169.7,398.2,169.7,398.2z"></path><path class="st1" d="M198.7,406c-2.3-0.1-4.5-0.4-6.7-0.8c-2-0.3-4.3-0.7-6.9-1c-5.1-0.6-12-2-15.6-5.3l-0.1-0.1
		c-0.2-0.1-0.3-0.3-0.3-0.6c0-0.3,0.6-7,4-10.2c3.6-3.4,20.8-1.6,26.6,0.1c3.1,1,5.2,2.5,6.2,4.6c1.1,2.3,0.9,5.2-0.6,8.7
		S201.8,406,198.7,406z M170.4,398c3.4,3,9.9,4.3,14.8,4.9c2.7,0.3,5,0.7,7,1c7.3,1.2,10,1.6,12-3c1.3-3.1,1.5-5.7,0.6-7.6
		c-0.8-1.8-2.7-3.1-5.4-4c-6.1-1.9-22.5-3.2-25.4-0.4C171.3,391.4,170.5,396.6,170.4,398z"></path><path class="st0" d="M165.8,395.6c0,0,5.6,4.7,9.3,4.1s8.9-2.6,6.8-6.6s-15.4-6.4-15.4-6.4L165.8,395.6z"></path><path class="st1" d="M174.5,400.4c-3.9,0-8.9-4.1-9.1-4.3c-0.2-0.1-0.2-0.3-0.2-0.5l0.7-8.9c0-0.2,0.1-0.3,0.2-0.5
		c0.1-0.1,0.3-0.2,0.5-0.1c1.4,0.2,13.7,2.6,15.8,6.8c0.7,1.1,0.7,2.5,0.1,3.7c-1.4,2.8-6,3.6-7.4,3.9
		C174.9,400.4,174.7,400.4,174.5,400.4z M166.5,395.3c1.1,0.9,5.6,4.2,8.5,3.8c2.4-0.4,5.6-1.4,6.4-3.2c0.4-0.8,0.3-1.7-0.1-2.5
		c-1.5-2.9-10.2-5.1-14.2-6L166.5,395.3z"></path><path class="st1" d="M98.8,356.5c0,0,5.9,22.9,27.3,27.3s32.5,3.2,40.1-11.3s2.6-23.3,2.6-23.3l-67.7-1.3L98.8,356.5z"></path><path class="st1" d="M143.9,386.8c-6-0.2-12-0.9-17.9-2.3c-21.6-4.4-27.8-27.6-27.9-27.8c0-0.1,0-0.2,0-0.4l2.3-8.6
		c0.1-0.3,0.4-0.5,0.7-0.5l67.7,1.3c0.2,0,0.5,0.1,0.6,0.4c0.2,0.4,5.1,9.4-2.6,24C161.6,383.1,154.4,386.8,143.9,386.8z
		 M99.6,356.5c0.6,2.1,6.9,22.6,26.7,26.6c20.6,4.2,31.7,3.6,39.4-10.9c6.5-12.4,3.5-20.6,2.7-22.3l-66.7-1.3L99.6,356.5z"></path><path class="st3" d="M174,356.7c0,0,11.1-35.8,9.6-58.3s-16.1-24.1-21.2-24.5s-32-4.5-42.1,7.3s-27.9,67.5-27.9,67.5L174,356.7z"></path><path class="st0" d="M133.9,274l1.8,12c0,0,3.8,6.2,11.3,3s7.7-8.9,7.7-8.9l-3.6-22.1c0,0-8-7.1-11.3-20.8c0,0-6.7,11.6-16.4,14.3
		c0,0,0.7,9.7,2.4,15.7C127.5,272.9,133.8,273.9,133.9,274z"></path><path class="st1" d="M142.9,290.6c-3.1-0.1-6.1-1.7-7.8-4.3c0-0.1-0.1-0.2-0.1-0.3l-1.7-11.5c-4.2-1.1-7.1-3.7-8.2-7.3
		c-1.7-6-2.4-15.4-2.4-15.8c0-0.3,0.2-0.6,0.5-0.7c9.3-2.5,15.9-13.8,15.9-13.9c0.2-0.3,0.6-0.5,1-0.3c0.2,0.1,0.3,0.3,0.3,0.4
		c3.2,13.3,11,20.4,11.1,20.5c0.1,0.1,0.2,0.3,0.2,0.4l3.6,22.2c0,0.4-0.2,6.4-8.1,9.7C145.9,290.3,144.4,290.6,142.9,290.6z
		 M136.3,285.7c0.6,0.8,4,5.3,10.4,2.7c7.1-2.9,7.3-8.2,7.3-8.3l-3.5-21.8c-1.2-1.1-7.6-7.7-10.9-19.4c-2.1,3.2-7.7,10.7-15.3,13
		c0.2,2.1,0.9,9.9,2.3,15c1.2,4.3,5.2,5.8,7.5,6.4c0.1,0,0.2,0.1,0.3,0.1c0.2,0.1,0.3,0.3,0.3,0.5L136.3,285.7z"></path><path class="st0" d="M146.4,258.3c0.1-1.1,0.6-2.2,1.3-3c0.7-0.8,1.6-1.4,2.5-1.8c0.5-0.3,1-0.5,1.6-0.6c0.4,0,0.8,0.1,1.2,0.2
		c0.9,0.3,1.7,0.9,2.2,1.7c0.3,0.7,0.5,1.5,0.4,2.2c0,0.8,0,1.7-0.2,2.5c-0.9,3.4-4.3,5.4-7.7,4.6c0,0,0,0-0.1,0"></path><path class="st1" d="M149.4,265c-0.6,0-1.2-0.1-1.8-0.2c-0.4-0.1-0.6-0.4-0.5-0.8c0.1-0.4,0.4-0.6,0.8-0.5c0,0,0.1,0,0.1,0
		c3,0.8,6-1,6.9-3.9c0,0,0,0,0-0.1c0.2-0.8,0.2-1.5,0.2-2.3c0-0.7-0.1-1.3-0.4-1.9c-0.4-0.7-1.1-1.1-1.8-1.4
		c-0.3-0.1-0.6-0.2-0.9-0.2c-0.5,0.1-0.9,0.2-1.3,0.5c-0.9,0.4-1.7,1-2.4,1.7c-0.7,0.7-1,1.6-1.1,2.6c0,0.4-0.4,0.7-0.8,0.6
		c-0.4,0-0.7-0.4-0.6-0.7c0,0,0,0,0,0c0.1-1.3,0.6-2.5,1.5-3.4c0.8-0.8,1.7-1.5,2.7-2c0.6-0.4,1.2-0.6,1.9-0.6c0.5,0,1,0.1,1.4,0.3
		c1.1,0.3,2,1,2.6,2c0.4,0.8,0.6,1.7,0.5,2.5c0,0.9,0,1.8-0.2,2.7C155.4,262.8,152.6,265,149.4,265L149.4,265z"></path><path class="st0" d="M135.6,254.9c0,0-3.4,6.7-2.3,7.6s3.8-0.1,3.8-0.1"></path><path class="st1" d="M134.7,263.6c-0.7,0-1.3-0.2-1.8-0.6c-1.3-1.1,0.4-5.2,2.1-8.5c0.2-0.3,0.6-0.5,0.9-0.3
		c0.3,0.2,0.5,0.6,0.3,0.9c-1.6,3.1-2.7,6.2-2.4,6.8c0.5,0.4,2.1,0.1,3-0.3c0.3-0.1,0.7,0,0.9,0.4c0,0,0,0,0,0
		c0.1,0.4,0,0.8-0.4,0.9c0,0,0,0,0,0C136.5,263.4,135.6,263.6,134.7,263.6z"></path><ellipse class="st1" transform="matrix(0.9967 -8.124270e-02 8.124270e-02 0.9967 -20.1107 12.2795)" cx="140.8" cy="253.3" rx="1" ry="1.4"></ellipse><ellipse class="st1" transform="matrix(0.9972 -7.428255e-02 7.428255e-02 0.9972 -18.5644 10.3727)" cx="130.2" cy="254.8" rx="1" ry="1.5"></ellipse><path class="st1" d="M136.5,268.9c-2,0-4-0.5-5.8-1.3c-0.4-0.2-0.5-0.6-0.4-0.9c0,0,0,0,0,0c0.2-0.4,0.6-0.5,0.9-0.3c0,0,0,0,0,0
		c0.1,0,5,2.3,8.5,0.4c1.7-0.9,2.9-2.7,3.3-5.3c0.1-0.4,0.4-0.6,0.8-0.6s0.6,0.4,0.6,0.8c-0.6,3.1-1.9,5.2-4.1,6.3
		C139.2,268.7,137.9,269,136.5,268.9z"></path><path class="st1" d="M133.9,274c0,0,7.7,0.6,11.8-2.5c0,0-3.4,10.8-10.6,10.7L133.9,274z"></path><path class="st1" d="M135.1,282.9c-0.4,0-0.7-0.2-0.7-0.6l-1.2-8.2c0-0.2,0-0.4,0.2-0.6c0.1-0.2,0.4-0.2,0.6-0.2
		c0.1,0,7.5,0.6,11.3-2.4c0.2-0.2,0.6-0.2,0.8,0c0.2,0.2,0.4,0.5,0.3,0.8C146.2,272.1,142.7,282.9,135.1,282.9z M134.7,274.7l1,6.8
		c4.4-0.4,7.3-5.5,8.6-8.4C140.9,274.7,136.6,274.8,134.7,274.7L134.7,274.7z"></path><path class="st3" d="M176.7,279.7c6.1,1.2,25.1,61.8,16.4,68.2c-13.5,10-54.9-3.7-54.9-3.7l4.1-17.8c0,0,29.8,1.4,30.4-4.7
		s-16.7-34.8-14.3-39S176.7,279.7,176.7,279.7z"></path><path class="st0" d="M145.4,332.5c-5,0.2-9.9-0.1-14.8-1c-3.8-0.8-7.1-1.6-11.1-1.5c-4.9,0.1-9.8,1.2-14.4,3
		c-0.2,0.1-0.4,0.2-0.5,0.3c-0.4,0.6,0.6,1.2,1.3,1.3c2,0.1,3.9-0.1,5.8-0.6c-4.7,1.7-9.2,3.9-13.3,6.8c-0.5,0.3-1,0.8-0.8,1.4
		s1.2,0.5,1.8,0.2l10.8-4.7c-2.8,1.1-5.4,2.6-7.7,4.5c-0.3,0.3-0.7,0.6-0.6,1.1c0.2,0.7,1.2,0.6,1.9,0.3c3.3-1.5,6.4-3.4,9.4-5.5
		l-6.7,4.9c-0.1,0.5,0.5,1,1,1c0.5,0,1.1-0.2,1.5-0.5l7.4-4.1l-4.6,3.1c-0.7,0.5-1.6,1.3-1.2,2.1s1.8,0.7,2.8,0.3
		c3.8-1.6,7.8-2.7,11.9-3.4c1.4-0.4,2.9-0.7,4.4-0.8c2.2,0.1,4.6,1.1,6.7,1.6c3.3,0.8,6.6,1.7,9.9,2.5"></path><path class="st1" d="M111.9,345.7c-0.3,0-0.6-0.1-0.9-0.2c-0.8-0.3-1.2-1.2-0.9-2l-0.6,0.3c-0.6,0.4-1.2,0.6-1.9,0.6
		c-0.5,0-1-0.3-1.3-0.7c-0.2-0.2-0.3-0.5-0.3-0.8l-1.8,0.9c-0.7,0.3-1.4,0.4-2.1,0.1c-0.3-0.2-0.6-0.5-0.7-0.9
		c-0.1-0.5,0.1-0.9,0.4-1.2l-2,0.9c-0.6,0.3-1.3,0.4-1.9,0.2c-0.3-0.1-0.6-0.4-0.7-0.7c-0.3-0.7,0.1-1.5,1-2.1
		c2.8-1.9,5.7-3.6,8.8-4.9l0,0c-0.3,0-0.6,0-0.9,0c-0.8,0-1.5-0.4-1.9-1.1c-0.2-0.4-0.1-0.8,0.1-1.2c0.2-0.2,0.5-0.4,0.8-0.5
		c4.6-1.9,9.6-2.9,14.6-3c3.3,0,6.6,0.4,9.8,1.2l1.4,0.3c4.8,0.9,9.8,1.2,14.7,1l0,0c0.3,0,0.6,0.3,0.6,0.6c0,0.4-0.3,0.6-0.6,0.7
		c-5,0.2-10.1-0.1-15-1l-1.4-0.3c-3.1-0.8-6.3-1.2-9.5-1.2c-4.9,0.1-9.6,1.1-14.1,2.9l-0.1,0c0.2,0.2,0.5,0.3,0.8,0.3
		c1.9,0.1,3.8-0.1,5.7-0.6c0.3-0.1,0.7,0.1,0.8,0.5c0.1,0.3-0.1,0.6-0.4,0.8c-4.7,1.6-9.1,3.9-13.2,6.7c-0.4,0.3-0.6,0.5-0.6,0.6
		c0.3,0.1,0.7,0,0.9-0.1l8.3-3.6c0.8-0.4,1.6-0.8,2.5-1.1c0.3-0.1,0.7,0,0.8,0.4c0.1,0.3,0,0.7-0.4,0.8l0,0l-2.4,1
		c-1.8,0.9-3.5,2-5.1,3.3c-0.4,0.3-0.4,0.5-0.4,0.5c0.3,0.1,0.7,0,1-0.2c3.2-1.5,6.4-3.3,9.3-5.4c0.3-0.2,0.7-0.1,0.9,0.1
		c0.2,0.3,0.2,0.7-0.1,0.9c0,0,0,0,0,0l-6.4,4.6c0.1,0.1,0.2,0.1,0.3,0.1c0.4,0,0.8-0.2,1.2-0.4l7.4-4.1c0.3-0.2,0.7-0.1,0.9,0.2
		c0.2,0.3,0.1,0.7-0.2,0.9l-4.7,3.1c-0.6,0.4-1.2,1-1,1.3c0,0.1,0.1,0.2,0.2,0.2c0.6,0.1,1.2,0,1.7-0.3c3.9-1.6,7.9-2.7,12-3.4
		c0.5-0.1,1-0.2,1.4-0.3c1-0.3,2.1-0.5,3.1-0.5c1.6,0.1,3.2,0.5,4.8,1c0.7,0.2,1.4,0.4,2,0.6c3.3,0.8,6.6,1.6,9.9,2.5
		c0.3,0.1,0.6,0.4,0.5,0.7c-0.1,0.3-0.4,0.6-0.7,0.5c0,0,0,0-0.1,0c-3.3-0.8-6.6-1.7-9.9-2.5c-0.7-0.2-1.4-0.4-2.1-0.6
		c-1.4-0.5-2.9-0.8-4.5-1c-0.9,0-1.8,0.2-2.7,0.4c-0.5,0.1-1,0.3-1.5,0.4c-4,0.7-8,1.8-11.7,3.4
		C113.1,345.5,112.5,345.7,111.9,345.7z"></path><path class="st0" d="M123.4,286.3c-1.7,1.6-6.3,27.8-8.1,40.2"></path><path class="st1" d="M115.3,327.1L115.3,327.1c-0.4-0.1-0.7-0.4-0.6-0.7c0,0,0,0,0,0c1.3-9.1,6.2-38.5,8.3-40.5
		c0.2-0.3,0.7-0.3,0.9,0s0.3,0.7,0,0.9c0,0,0,0,0,0c-1.4,1.5-6,25.9-7.9,39.8C115.9,326.9,115.6,327.1,115.3,327.1z"></path><path class="st1" d="M160.7,350.8h-0.1l-14.4-2.8c-0.3-0.1-0.6-0.3-0.6-0.7l-0.1-17.4c0-0.4,0.3-0.7,0.6-0.7l26.1-2.2l-10.7-39.7
		c-0.1-0.4,0.2-0.7,0.5-0.8c0.3-0.1,0.7,0.1,0.8,0.5l10.9,40.5c0.1,0.2,0,0.4-0.1,0.6c-0.1,0.2-0.3,0.3-0.5,0.3l-26.3,2.2l0.1,16.1
		l13.9,2.7c0.4,0.1,0.6,0.4,0.6,0.8c0,0,0,0,0,0C161.3,350.5,161,350.8,160.7,350.8z"></path><polygon class="st0" points="80.3,355.2 67.7,321.6 119.1,322.6 130.6,361 	"></polygon><path class="st1" d="M130.6,361.7L130.6,361.7L80.2,356c-0.3,0-0.5-0.2-0.6-0.5l-12.6-33.6c-0.1-0.2,0-0.5,0.1-0.6
		c0.1-0.2,0.3-0.3,0.6-0.3l51.3,1c0.3,0,0.6,0.2,0.7,0.5l11.5,38.4c0.1,0.4-0.1,0.8-0.4,0.9C130.7,361.7,130.6,361.7,130.6,361.7
		L130.6,361.7z M80.8,354.6l48.8,5.6l-11.1-36.9l-49.8-1L80.8,354.6z"></path><path class="st1" d="M83,355.6c0,0-13.9,11.3-9,21.7s93.8,22.2,93.8,22.2l4-13.6C171.8,385.9,102.1,350.3,83,355.6z"></path><path class="st1" d="M167.9,400.2L167.9,400.2c-3.7-0.5-89.4-12-94.5-22.6c-5.1-10.8,8.6-22.1,9.2-22.6c0.1-0.1,0.2-0.1,0.3-0.1
		c19.1-5.3,86.5,28.9,89.4,30.4c0.3,0.2,0.4,0.5,0.4,0.8l-4,13.6C168.5,400,168.2,400.2,167.9,400.2z M83.4,356.2
		c-1.3,1.1-13.1,11.5-8.7,20.8c3.9,8.2,67.7,18.4,92.7,21.8l3.7-12.4C164.6,383,101.3,351.5,83.4,356.2L83.4,356.2z"></path><path class="st1" d="M176.5,350.4c0,0-69.1,28-86.3,35.3l10,15.4c0,0,63.8-1.2,82.1-17.3S199.4,341.1,176.5,350.4z"></path><path class="st1" d="M100.2,401.8c-0.2,0-0.5-0.1-0.6-0.3l-10-15.4c-0.1-0.2-0.2-0.4-0.1-0.6c0.1-0.2,0.2-0.4,0.4-0.5
		c16.9-7.3,85.6-35,86.3-35.3l0,0c8.1-3.3,14.6-2.4,17.6,2.6c5.3,8.7-1.4,23.6-11.1,32c-7.7,6.8-23.9,11.7-48.3,14.8
		C116.5,401.4,100.4,401.7,100.2,401.8L100.2,401.8z M91.3,386l9.3,14.4c5.4-0.1,64.1-2.1,81.3-17.1c11.4-10,14.8-23.7,10.8-30.2
		c-2.7-4.4-8.3-5.1-15.9-2l0,0C176.1,351.3,109.4,378.2,91.3,386z M176.5,350.4L176.5,350.4z"></path><path class="st0" d="M80.1,341.8c-0.1,0.4-0.2,0.8-0.5,1.1l-1.3,2c0.2-0.8,1-1.3,1.8-1.1c0.1,0,0.2,0,0.2,0.1
		c0.8,0.4,1.2,1.2,1.2,2.1c0,0.9-0.2,1.7-0.6,2.5c-1,2.5-3.1,6.1-6.2,4.2c-2.1-1.3-2.7-5.8-3-8c-0.6-4.4,0.8-10.1,6.4-9.2
		c-0.2,2.2-1,4.2-2.3,6C76.6,340.6,80.3,339.2,80.1,341.8z"></path><path class="st1" d="M76.3,353.9c-0.7,0-1.4-0.2-2-0.6c-2.4-1.4-3-6-3.3-8.4c-0.4-2.9,0-6.5,2-8.6c1.4-1.3,3.3-1.8,5.1-1.4
		c0.3,0,0.6,0.3,0.5,0.7c-0.1,1.5-0.5,2.9-1.2,4.3c0.7-0.3,1.5-0.3,2.3,0c0.8,0.4,1.2,1.2,1,2c-0.1,0.5-0.3,0.9-0.6,1.3
		c0.1,0,0.2,0.1,0.3,0.1c1,0.5,1.6,1.6,1.6,2.7c0,0.9-0.2,1.9-0.6,2.8c-0.6,1.5-1.9,4.2-4,5C77.1,353.9,76.7,354,76.3,353.9z
		 M76.9,336.1c-1.1,0-2.2,0.4-3,1.1c-1.8,1.7-2,5-1.7,7.4c0.3,2.1,0.9,6.4,2.7,7.5c0.6,0.4,1.3,0.5,2,0.3c1.2-0.4,2.4-2,3.3-4.2
		c0.3-0.7,0.5-1.5,0.6-2.3c0-0.6-0.2-1.2-0.8-1.6c-0.2-0.1-0.5-0.1-0.7,0l-0.5,0.7c-0.2,0.3-0.6,0.4-0.9,0.2
		c-0.2-0.1-0.3-0.3-0.3-0.6c0.1-0.5,0.3-1,0.8-1.3l0.7-1c0.2-0.2,0.3-0.5,0.4-0.8l0,0c0.1-0.6-0.2-0.7-0.2-0.7
		c-0.7-0.3-2.5,0.4-3.1,0.9c-0.3,0.2-0.7,0.2-0.9,0c-0.2-0.2-0.2-0.6,0-0.8c1.1-1.4,1.9-3.2,2.1-5L76.9,336.1z"></path><path class="st0" d="M99.4,382.8c-0.3,0-0.6-0.2-0.7-0.5c-0.1-0.4,0-0.8,0.4-0.9c0.4-0.1,37-14.3,45-19.2c0.3-0.2,0.8-0.1,1,0.2
		c0,0,0,0,0,0c0.2,0.3,0.1,0.8-0.2,1c0,0,0,0,0,0c-8,4.9-43.7,18.7-45.2,19.3C99.6,382.8,99.5,382.8,99.4,382.8z"></path></g><g id="Chat_Icon"><path class="st0" d="M96.9,203.8h5.9c0,7.6,0.4,18.4,0.4,18.4l11.4-18.4H165c4.9,0,8.8-3.9,8.8-8.8l0,0v-30c0-4.9-3.9-8.8-8.8-8.8
		l0,0H96.9c-4.9,0-8.8,3.9-8.8,8.8l0,0v30C88.1,199.8,92,203.8,96.9,203.8L96.9,203.8z"></path><path class="st2" d="M103.2,222.9h-0.2c-0.3-0.1-0.5-0.4-0.5-0.7c0-0.1-0.3-10.3-0.4-17.7h-5.2c-5.2,0-9.5-4.3-9.5-9.5v-30
		c0-5.2,4.3-9.5,9.5-9.5H165c5.2,0,9.5,4.3,9.5,9.5v30c0,5.2-4.3,9.5-9.5,9.5h-50l-11.2,18.1C103.7,222.7,103.5,222.8,103.2,222.9z
		 M96.9,156.9c-4.5,0-8.1,3.6-8.1,8.1v30c0,4.5,3.6,8.1,8.1,8.1h5.9c0.4,0,0.7,0.3,0.7,0.7c0,0,0,0,0,0c0,5.4,0.2,12.5,0.3,16.1
		l10.2-16.4c0.1-0.2,0.3-0.3,0.6-0.3H165c4.5,0,8.1-3.6,8.1-8.1v-30c0-4.5-3.6-8.1-8.1-8.1H96.9z"></path><path class="st2" d="M164.1,168.7h-62c-0.4,0-0.7-0.3-0.7-0.7c0-0.4,0.3-0.7,0.7-0.7h62c0.4,0,0.7,0.3,0.7,0.7
		C164.8,168.4,164.5,168.7,164.1,168.7z"></path><path class="st2" d="M164.1,180.3h-62c-0.4,0-0.7-0.3-0.7-0.7c0-0.4,0.3-0.7,0.7-0.7h62c0.4,0,0.7,0.3,0.7,0.7
		C164.8,180,164.5,180.3,164.1,180.3C164.1,180.3,164.1,180.3,164.1,180.3z"></path><path class="st2" d="M149.6,191.8h-47.6c-0.4,0-0.7-0.3-0.7-0.7c0-0.4,0.3-0.7,0.7-0.7c0,0,0,0,0,0h47.6c0.4,0,0.7,0.3,0.7,0.7
		C150.4,191.5,150,191.8,149.6,191.8C149.7,191.8,149.7,191.8,149.6,191.8z"></path></g><g id="Video_Icon"><path class="st0" d="M388,213h3.7c0-4.8,0.2-11.5,0.2-11.5l7.1,11.5h31.5c3,0,5.5,2.5,5.5,5.5v18.8c0,3-2.5,5.5-5.5,5.5l0,0H388
		c-3,0-5.5-2.5-5.5-5.5v-18.8C382.5,215.5,384.9,213,388,213C388,213,388,213,388,213z"></path><path class="st2" d="M430.6,243.5H388c-3.4,0-6.2-2.8-6.2-6.2v-18.8c0-3.4,2.8-6.2,6.2-6.2h3c0-4.6,0.2-10.8,0.2-10.8
		c0-0.3,0.2-0.6,0.5-0.6c0.3-0.1,0.6,0.1,0.8,0.3l6.9,11.2h31.1c3.4,0,6.2,2.8,6.2,6.2v18.8C436.8,240.7,434,243.5,430.6,243.5
		C430.6,243.5,430.6,243.5,430.6,243.5z M388,213.7c-2.7,0-4.8,2.2-4.8,4.8v18.8c0,2.7,2.2,4.8,4.8,4.8h42.6c2.7,0,4.8-2.2,4.8-4.8
		v-18.8c0-2.7-2.1-4.8-4.8-4.8h-31.5c-0.2,0-0.5-0.1-0.6-0.3l-5.9-9.5c-0.1,2.4-0.2,6.2-0.2,9.2c0,0.4-0.3,0.7-0.7,0.7H388z"></path><path class="st2" d="M406.1,237.4c-0.1,0-0.2,0-0.3-0.1c-0.2-0.1-0.4-0.4-0.4-0.6v-16.7c0-0.4,0.3-0.7,0.7-0.7c0.1,0,0.3,0,0.4,0.1
		l12.2,7.7c0.2,0.1,0.3,0.3,0.3,0.6c0,0.2-0.1,0.4-0.3,0.6l-12.1,9.1C406.4,237.3,406.2,237.4,406.1,237.4z M406.8,221.2v14.1
		l10.2-7.6L406.8,221.2z"></path></g></svg>